<!DOCTYPE svg PUBLIC "-//W3C//DTD SVG 1.1//EN" "http://www.w3.org/Graphics/SVG/1.1/DTD/svg11.dtd">
<svg version="1.1" xmlns="http://www.w3.org/2000/svg" xmlns:xlink="http://www.w3.org/1999/xlink" x="0px" y="0px"
	 width="273px" height="134.035px" viewBox="0 0 273 134.035" enable-background="new 0 0 273 134.035" xml:space="preserve">
<g>
	<path fill="#231F20" d="M213.369,3.25c0.183,0.102,0.356,0.226,0.551,0.301c0.705,0.275,1.167,0.786,1.375,1.494
		c0.135,0.462,0.208,0.952,0.242,1.434c0.098,1.413-0.107,2.797-0.472,4.162c-0.742,2.795-1.896,5.404-3.486,7.821
		c-1.139,1.729-2.607,3.137-4.246,4.377c-3.246,2.453-6.93,3.939-10.861,4.854c-1.216,0.282-2.451,0.485-3.674,0.739
		c-1.771,0.366-3.468,0.949-5.083,1.766c-0.968,0.489-1.794,1.137-2.477,1.988c-0.685,0.857-1.399,1.691-2.122,2.517
		c-2.433,2.778-5.408,4.719-8.954,5.766c-1.376,0.407-2.79,0.63-4.215,0.811c-1.763,0.223-3.529,0.174-5.298,0.177
		c-1.922,0.003-3.844-0.014-5.765-0.034c-0.365-0.004-0.728-0.069-1.091-0.09c-2.532-0.144-4.848,0.354-6.716,2.231
		c-0.688,0.689-1.387,1.378-2.151,1.975c-1.466,1.143-3.181,1.803-4.956,2.283c-2.755,0.744-5.569,1.067-8.42,0.935
		c-2.62-0.121-5.238-0.252-7.861-0.186c-0.696,0.018-1.399,0.085-2.087,0.207c-1.228,0.22-1.734,0.752-1.915,1.996
		c-0.082,0.569-0.074,1.154-0.08,1.732c-0.004,0.511,0.211,0.939,0.56,1.314c0.488,0.53,1.089,0.875,1.758,1.117
		c1.16,0.419,2.36,0.637,3.589,0.622c2.469-0.032,4.938-0.099,7.408-0.158c1.31-0.032,2.621-0.075,3.931-0.121
		c2.226-0.078,4.45-0.164,6.674-0.242c1.312-0.046,2.621-0.11,3.933-0.117c3.051-0.018,6.103-0.047,9.152,0.007
		c2.407,0.043,4.816,0.172,7.22,0.32c2.19,0.135,4.377,0.349,6.564,0.527c0.152,0.012,0.306,0.028,0.456,0.018
		c2.951-0.202,5.904-0.375,8.852-0.62c2.796-0.231,5.588-0.514,8.376-0.82c2.576-0.283,5.149-0.6,7.719-0.95
		c3.232-0.44,6.466-0.89,9.686-1.408c4.065-0.654,8.123-1.346,12.172-2.088c3.209-0.587,6.406-1.242,9.597-1.927
		c2.713-0.581,5.412-1.229,8.106-1.888c1.161-0.283,2.288-0.274,3.429,0.069c2.12,0.638,4.075,1.628,5.932,2.817
		c3.541,2.268,6.64,5.052,9.485,8.14c1.885,2.046,3.63,4.198,5.188,6.499c0.224,0.328,0.435,0.665,0.627,1.011
		c1.379,2.462-0.149,5.308-2.649,5.906c-0.596,0.142-1.187,0.13-1.807,0.08c-2.976-0.235-5.723-1.218-8.346-2.547
		c-2.518-1.274-5.192-1.899-7.95-2.313c-1.551-0.233-3.105-0.211-4.655-0.136c-1.559,0.075-3.065,0.481-4.516,1.076
		c-3.668,1.508-7.325,3.041-11.009,4.505c-4.053,1.61-8.131,3.166-12.335,4.342c-2.376,0.665-4.78,1.251-7.194,1.757
		c-4.354,0.914-8.726,1.744-13.091,2.605c-1.944,0.383-3.892,0.744-5.832,1.144c-1.205,0.25-2.33,0.726-3.361,1.398
		c-0.326,0.213-0.631,0.488-0.873,0.792c-0.425,0.535-0.44,1.079,0.019,1.581c0.361,0.396,0.807,0.762,1.287,0.996
		c0.899,0.441,1.827,0.869,2.788,1.138c2.905,0.814,5.822,1.599,8.757,2.305c5.368,1.293,10.789,2.332,16.229,3.267
		c3.035,0.522,6.073,1.035,9.116,1.503c3.165,0.487,6.337,0.916,9.506,1.37c4.043,0.581,8.085,1.174,12.131,1.737
		c1.723,0.239,3.452,0.408,5.178,0.621c1.727,0.214,3.446,0.464,5.11,0.993c2.436,0.773,4.493,2.154,6.333,3.9
		c1.961,1.861,3.555,4.016,5.057,6.245c0.682,1.012,1.321,2.051,2.011,3.058c0.757,1.106,1.534,2.199,2.325,3.281
		c1.067,1.461,1.92,3.042,2.668,4.683c0.951,2.088,1.769,4.226,2.121,6.503c0.139,0.895,0.173,1.833,0.071,2.731
		c-0.183,1.642-1.186,2.699-2.719,3.249c-1.143,0.408-2.327,0.478-3.52,0.295c-2.305-0.353-4.378-1.303-6.335-2.516
		c-2.422-1.5-4.603-3.311-6.673-5.258c-1.864-1.755-3.687-3.558-5.585-5.276c-1.668-1.513-3.573-2.652-5.783-3.212
		c-1.186-0.299-2.381-0.508-3.61-0.521c-1.096-0.013-2.19-0.123-3.286-0.127c-0.88-0.004-1.769,0.181-2.642,0.117
		c-3.198-0.236-6.401-0.069-9.602-0.17c-1.491-0.049-2.982-0.107-4.473-0.186c-2.129-0.112-4.257-0.233-6.384-0.373
		c-1.551-0.101-3.1-0.221-4.646-0.359c-2.638-0.235-5.279-0.463-7.912-0.748c-3.027-0.329-6.052-0.689-9.072-1.09
		c-2.717-0.36-5.428-0.774-8.137-1.196c-3.161-0.492-6.319-1.001-9.473-1.535c-2.374-0.403-4.742-0.84-7.107-1.291
		c-3.352-0.64-6.703-1.291-10.049-1.967c-3.943-0.795-7.881-1.618-11.821-2.435c-5.252-1.09-10.503-2.186-15.755-3.279
		c-0.925-0.193-1.855-0.359-2.773-0.581c-1.976-0.478-3.98-0.578-5.996-0.5c-4.603,0.178-8.964,1.337-13.156,3.213
		c-1.063,0.476-2.044,1.07-3.005,1.725c-2.218,1.512-4.469,2.975-6.726,4.428c-0.534,0.344-1.14,0.584-1.725,0.842
		c-2.875,1.267-5.766,2.494-8.627,3.791c-4.388,1.988-8.743,4.054-13.138,6.026c-3.618,1.625-7.312,3.069-11.094,4.273
		c-3.607,1.146-7.262,2.104-11.015,2.644c-0.904,0.13-1.812,0.23-2.716,0.365c-0.451,0.067-0.899,0.167-1.341,0.278
		c-3.726,0.938-7.423,1.977-11.118,3.025c-2.393,0.68-4.66,1.617-6.916,2.618c-0.334,0.148-0.678,0.276-1.024,0.392
		c-1.371,0.454-2.642,0.191-3.851-0.542c-0.854-0.519-1.391-1.265-1.653-2.216c-0.104-0.38-0.186-0.765-0.264-1.089
		c-0.243-0.287-0.518-0.298-0.794-0.313c-0.707-0.04-1.4,0.037-2.082,0.229c-0.885,0.25-1.784,0.41-2.709,0.343
		c-1.441-0.104-2.484-0.812-3.04-2.14c-0.54-1.29-0.214-2.472,0.706-3.463c0.45-0.486,0.985-0.93,1.56-1.253
		c0.981-0.551,1.994-1.068,3.044-1.467c4.533-1.725,9.084-3.4,13.629-5.095c0.257-0.095,0.508-0.238,0.772-0.276
		c2.02-0.287,3.801-1.272,5.683-1.947c7.93-2.849,15.654-6.195,23.313-9.697c4.77-2.181,9.519-4.409,14.276-6.619
		c0.269-0.125,0.526-0.273,0.793-0.411c-0.102-0.443-0.444-0.475-0.705-0.586c-2.278-0.966-4.613-1.761-7.009-2.384
		c-2.568-0.667-5.128-1.367-7.594-2.365c-1.332-0.539-2.615-1.17-3.817-1.962c-0.9-0.592-1.697-1.293-2.368-2.135
		c-0.879-1.103-1.396-2.363-1.527-3.762c-0.128-1.371-0.081-2.741,0.214-4.096c0.493-2.272,1.854-3.87,3.868-4.946
		c1.746-0.931,3.632-1.41,5.584-1.652c2.371-0.293,4.746-0.27,7.123-0.068c0.328,0.028,0.66,0.004,1.073,0.004
		c0-0.246,0.049-0.458-0.008-0.636c-0.231-0.726-0.509-1.438-0.736-2.165c-0.154-0.488-0.433-0.856-0.842-1.157
		c-1.477-1.083-2.921-2.206-4.416-3.261c-4.34-3.066-8.881-5.81-13.543-8.355c-4.179-2.281-8.423-4.43-12.788-6.332
		c-3.103-1.352-6.229-2.653-9.366-3.923c-0.926-0.375-1.928-0.561-2.893-0.843c-0.338-0.098-0.657-0.086-0.978,0.067
		c-0.49,0.236-1.007,0.227-1.523,0.126c-2.934-0.571-5.892-0.973-8.853-1.359c-1.268-0.165-2.542-0.287-3.828-0.257
		c-0.956,0.023-1.883-0.165-2.695-0.722c-1.122-0.768-1.56-1.839-1.357-3.168c0.097-0.632,0.42-1.16,0.967-1.49
		c0.439-0.265,0.924-0.458,1.402-0.652c0.304-0.125,0.631-0.192,0.995-0.298c-0.149-0.302-0.393-0.324-0.611-0.387
		c-1.141-0.33-2.293-0.626-3.419-1.001c-1.213-0.402-2.235-1.12-3.02-2.136c-0.793-1.029-0.9-2.172-0.442-3.37
		c0.219-0.574,0.561-1.076,0.979-1.533c1.523-1.664,3.445-2.469,5.657-2.654c1.52-0.127,3.038-0.295,4.562-0.34
		c1.408-0.042,2.8,0.215,4.131,0.687c1.437,0.51,2.856,1.068,4.28,1.615c1.48,0.569,2.992,1.073,4.426,1.744
		c2.931,1.371,6.058,2.015,9.188,2.682c3.643,0.775,7.243,1.709,10.796,2.821c3.845,1.204,7.642,2.545,11.364,4.08
		c3.102,1.278,6.189,2.596,9.227,4.018c4.115,1.928,8.192,3.938,12.256,5.974c3.626,1.818,7.214,3.713,10.807,5.595
		c0.54,0.282,1.045,0.382,1.658,0.298c2.144-0.295,4.296-0.544,6.448-0.777c0.816-0.088,1.644-0.082,2.466-0.132
		c0.294-0.018,0.586-0.077,0.971-0.13c-0.077-0.317-0.084-0.568-0.194-0.758c-0.442-0.764-0.88-1.536-1.392-2.253
		c-0.902-1.267-1.876-2.481-2.787-3.743c-1.389-1.926-2.401-4.03-2.868-6.375c-0.56-2.825-0.258-5.585,0.697-8.276
		c1.524-4.293,4.188-7.746,7.814-10.482c2.994-2.26,6.284-3.965,9.781-5.298c3.581-1.364,7.279-2.265,11.07-2.777
		c2.266-0.306,4.545-0.514,6.814-0.799c2.661-0.335,5.319-0.699,7.979-1.062c2.719-0.37,5.438-0.74,8.154-1.136
		c3.528-0.515,7.055-1.055,10.583-1.587c3.346-0.505,6.693-1.005,10.039-1.523c2.953-0.459,5.9-0.944,8.853-1.411
		c3.223-0.508,6.448-1.01,9.671-1.513c3.436-0.535,6.869-1.075,10.306-1.602c4.129-0.633,8.261-1.256,12.391-1.885
		c1.145-0.174,2.291-0.354,3.434-0.535c0.236-0.037,0.501-0.013,0.651-0.266C212.881,3.25,213.125,3.25,213.369,3.25 M139.136,38.86
		c0.003-0.044,0.005-0.087,0.008-0.13c0.331,0,0.662-0.003,0.994,0.001c1.951,0.025,3.903,0.06,5.854,0.075
		c1.802,0.014,3.604-0.044,5.4,0.021c3.05,0.111,6.097,0.13,9.147-0.004c2.293-0.101,4.557-0.394,6.792-0.904
		c2.812-0.642,5.497-1.621,7.957-3.154c2.15-1.342,3.982-3.016,5.321-5.192c0.188-0.303,0.446-0.586,0.362-1.067
		c-2.13-0.447-4.319-0.585-6.479-0.904c-2.17-0.32-4.354-0.54-6.529-0.817c-2.167-0.276-4.333-0.569-6.499-0.854
		c2.896-0.246,5.785-0.374,8.673-0.489c3.168-0.125,6.337-0.253,9.506-0.353c2.621-0.083,5.244-0.154,7.866-0.177
		c1.622-0.014,3.229-0.136,4.828-0.383c3.226-0.498,6.287-1.492,9.112-3.151c3.727-2.187,6.548-5.245,8.602-9.026
		c0.7-1.29,1.254-2.645,1.681-4.05c0.084-0.278,0.24-0.565,0.025-0.933c-0.414,0.036-0.837,0.046-1.251,0.113
		c-3.549,0.576-7.095,1.167-10.645,1.743c-2.436,0.395-4.875,0.772-7.312,1.161c-2.888,0.462-5.775,0.936-8.663,1.393
		c-2.919,0.461-5.841,0.907-8.761,1.361c-2.589,0.402-5.177,0.811-7.768,1.207s-5.182,0.779-7.772,1.167
		c-3.526,0.529-7.05,1.061-10.576,1.582c-1.869,0.276-3.74,0.531-5.61,0.795c-1.99,0.281-3.979,0.573-5.972,0.841
		c-2.083,0.28-4.169,0.537-6.255,0.802c-1.752,0.223-3.502,0.469-5.258,0.659c-2.188,0.235-4.346,0.597-6.455,1.231
		c-6.044,1.814-11.392,4.802-15.771,9.4c-1.72,1.806-3.121,3.83-3.957,6.201c-0.639,1.814-0.87,3.668-0.48,5.581
		c0.265,1.308,0.821,2.486,1.508,3.611c1.669,2.74,3.161,5.574,4.379,8.54c0.693,1.69,1.258,3.434,1.876,5.155
		c0.102,0.281,0.215,0.572,0.006,0.906c-1.397,0.096-2.804,0.106-4.191-0.034c-1.435-0.146-2.862-0.131-4.294-0.132
		c-2.686-0.002-5.369,0.011-8.055,0.028c-0.503,0.003-0.962-0.105-1.402-0.341c-1.131-0.604-2.271-1.189-3.399-1.792
		c-3.014-1.609-6.028-3.215-9.036-4.835c-4.618-2.489-9.26-4.929-14.002-7.181c-4.301-2.043-8.67-3.916-13.168-5.488
		c-3.688-1.29-7.438-2.349-11.271-3.119c-2.215-0.444-4.447-0.747-6.686-1.015c-0.814-0.098-1.639-0.131-2.459-0.195
		c-0.517-0.04-0.895,0.158-1.082,0.653c-0.128,0.342-0.273,0.685-0.34,1.041c-0.298,1.618-0.58,3.239-0.843,4.863
		c-0.052,0.319,0.004,0.656,0.011,1.023c0.312,0.149,0.576,0.293,0.854,0.405c4.041,1.64,8.103,3.232,12.122,4.923
		c5.908,2.485,11.67,5.28,17.286,8.373c2.781,1.53,5.514,3.144,8.148,4.912c2.524,1.696,5.03,3.422,7.369,5.478
		c0.156-0.216,0.306-0.4,0.431-0.597c0.375-0.593,0.721-1.205,1.114-1.786c0.79-1.17,1.719-2.215,2.884-3.032
		c1.411-0.99,2.962-1.524,4.702-1.551c1.795-0.027,3.44,0.456,4.971,1.344c2.611,1.515,4.546,3.658,5.81,6.4
		c0.556,1.208,0.896,2.5,0.84,3.811c-0.075,1.793-0.285,3.586-0.539,5.364c-0.559,3.898-1.406,7.738-2.489,11.525
		c-0.084,0.293-0.175,0.586-0.225,0.886c-0.026,0.156,0.025,0.327,0.046,0.509c0.154-0.016,0.255-0.002,0.328-0.039
		c0.299-0.151,0.594-0.31,0.884-0.478c2.426-1.408,4.815-2.885,7.395-4.011c1.54-0.672,3.104-1.28,4.778-1.531
		c1.412-0.211,2.804-0.102,4.152,0.363c1.317,0.455,2.229,1.352,2.685,2.681c0.119,0.345,0.234,0.702,0.271,1.061
		c0.134,1.272,0.259,2.545,0.339,3.82c0.061,0.976,0.114,1.085,1.05,1.292c0.119,0.026,0.241,0.04,0.36,0.063
		c2.034,0.397,4.069,0.796,6.104,1.194c3.98,0.779,7.959,1.561,11.941,2.336c6.225,1.213,12.447,2.435,18.679,3.625
		c4.222,0.806,8.449,1.596,12.684,2.333c3.846,0.67,7.7,1.286,11.56,1.874c3.857,0.588,7.721,1.14,11.59,1.654
		c3.052,0.404,6.114,0.749,9.175,1.08c2.941,0.317,5.883,0.633,8.831,0.858c3.953,0.301,7.911,0.53,11.869,0.761
		c2.526,0.146,5.054,0.266,7.584,0.347c2.316,0.075,4.634,0.096,6.952,0.115c2.41,0.018,4.82-0.011,7.23,0.012
		c0.853,0.008,1.709,0.061,2.554,0.173c3.156,0.417,5.843,1.844,8.228,3.904c1.876,1.619,3.473,3.508,5.166,5.305
		c1.759,1.87,3.569,3.68,5.708,5.121c1.524,1.028,3.093,1.975,4.929,2.33c0.501,0.097,1.033,0.135,1.538,0.082
		c0.732-0.079,1.158-0.549,1.195-1.282c0.02-0.417-0.052-0.852-0.161-1.258c-0.318-1.19-0.891-2.274-1.558-3.297
		c-1.901-2.912-3.812-5.817-5.763-8.696c-1.3-1.919-2.698-3.768-4.266-5.483c-1.814-1.985-3.914-3.567-6.415-4.599
		c-2.133-0.879-4.372-1.324-6.637-1.655c-2.353-0.342-4.709-0.642-7.062-0.978c-3.195-0.457-6.391-0.927-9.587-1.397
		c-3.435-0.506-6.878-0.976-10.304-1.541c-4.179-0.689-8.354-1.412-12.513-2.209c-5.271-1.009-10.512-2.157-15.705-3.505
		c-3.54-0.919-7.068-1.888-10.602-2.839c-1.418-0.382-2.797-0.867-4.089-1.575c-0.886-0.485-1.717-1.045-2.41-1.795
		c-0.988-1.073-1.239-2.552,0.149-3.782c0.838-0.743,1.8-1.261,2.85-1.603c1.102-0.357,2.221-0.661,3.339-0.961
		c4.687-1.261,9.435-2.247,14.203-3.125c4.649-0.856,9.293-1.722,13.906-2.762c2.56-0.577,5.098-1.231,7.573-2.113
		c4.772-1.702,9.409-3.738,14.028-5.811c2.812-1.26,5.622-2.52,8.439-3.766c2.592-1.148,5.27-1.421,8.049-0.802
		c1.881,0.419,3.674,1.125,5.527,1.626c1.963,0.531,3.78,1.342,5.492,2.433c0.928,0.59,1.944,1.014,3.008,1.321
		c0.684,0.198,1.377,0.264,2.081,0.168c0.461-0.062,0.884-0.208,1.182-0.709c-0.153-0.279-0.285-0.585-0.473-0.851
		c-0.741-1.044-1.472-2.099-2.257-3.109c-2.312-2.972-4.878-5.701-7.881-7.99c-1.678-1.278-3.452-2.398-5.417-3.208
		c-1.253-0.516-2.493-0.806-3.805-0.245c-0.027,0.011-0.059,0.011-0.089,0.017c-3.963,0.847-7.92,1.731-11.894,2.528
		c-2.867,0.576-5.756,1.052-8.64,1.545c-2.372,0.406-4.75,0.782-7.129,1.151c-2.287,0.356-4.577,0.699-6.869,1.024
		c-1.989,0.282-3.984,0.537-5.979,0.795c-2.235,0.289-4.472,0.574-6.708,0.848c-1.33,0.163-2.663,0.303-3.994,0.452
		c-1.363,0.152-2.723,0.317-4.087,0.45c-1.607,0.156-3.215,0.29-4.825,0.424c-2.184,0.181-4.37,0.353-6.554,0.527
		c-0.184,0.015-0.365,0.021-0.548,0.034c-1.336,0.089-2.674,0.18-4.01,0.266c-0.09,0.006-0.181-0.022-0.271-0.031
		c-1.123-0.101-2.244-0.208-3.368-0.302c-0.91-0.075-1.822-0.141-2.733-0.2c-1.7-0.11-3.402-0.296-5.104-0.296
		c-2.925-0.001-5.853-0.138-8.778,0.11c-1.728,0.147-3.469,0.156-5.205,0.224c-0.426,0.017-0.854,0.007-1.279,0.035
		c-1.52,0.096-3.035,0.235-4.557,0.299c-2.221,0.093-4.445,0.136-6.67,0.2c-0.091,0.003-0.182,0.014-0.273,0.014
		c-2.137-0.007-4.271-0.019-6.406-0.02c-0.439,0-0.764-0.114-0.929-0.568c-0.896-2.465-1.807-4.927-2.382-7.493
		c-0.132-0.589-0.188-1.183-0.103-1.809c0.241-1.767,0.782-3.446,1.356-5.119c0.065-0.194,0.198-0.365,0.334-0.604
		c0.338,0.023,0.668,0.029,0.992,0.071c0.665,0.086,1.324,0.218,1.991,0.282c2.398,0.23,4.796,0.458,7.198,0.65
		c1.765,0.14,3.532,0.121,5.298-0.056c4.212-0.423,7.856-2.122,11.035-4.873c0.118-0.102,0.172-0.28,0.309-0.514
		c-1.523-0.313-2.975-0.46-4.413-0.684C142.062,39.333,140.6,39.094,139.136,38.86z M36.093,117.855
		c-0.112,0.646,0.025,1.146,0.215,1.626c0.426,1.076,0.866,2.147,1.318,3.214c0.492,1.16,0.5,1.154,1.72,1.235
		c0.182,0.014,0.364,0.031,0.547,0.045c3.418,0.274,6.826,0.135,10.217-0.343c4.458-0.626,8.773-1.803,12.955-3.467
		c3.432-1.367,6.774-2.917,10.033-4.655c2.825-1.506,5.672-2.968,8.508-4.452c2.595-1.356,5.211-2.667,7.904-3.819
		c0.868-0.371,1.758-0.703,2.588-1.147c1.855-0.991,3.673-2.047,5.513-3.065c1.788-0.989,3.581-1.967,5.212-3.212
		c1.05-0.799,1.996-1.698,2.743-2.792c0.84-1.229,1.216-2.588,1.064-4.071c-0.098-0.948-0.32-1.866-0.93-2.639
		c-0.586-0.738-1.35-1.037-2.269-0.827c-0.411,0.094-0.811,0.261-1.198,0.437c-1.137,0.515-2.255,1.076-3.397,1.576
		c-3.185,1.393-6.372,2.776-9.571,4.134c-0.614,0.261-1.018,0.636-1.173,1.281c-0.029,0.118-0.08,0.231-0.122,0.345
		c-0.584,1.571-1.162,3.145-1.757,4.712c-0.138,0.361-0.339,0.698-0.492,1.01c-0.465,0.034-0.699-0.241-0.977-0.411
		c-1.275-0.778-2.557-1.548-3.814-2.352c-0.598-0.383-1.144-0.414-1.796-0.106c-1.489,0.701-3.005,1.345-4.515,1.999
		c-5.651,2.447-11.292,4.917-16.96,7.325c-6.819,2.896-13.713,5.608-20.705,8.061C36.671,117.597,36.397,117.729,36.093,117.855z
		 M25.727,34.945c-0.399-0.253-0.689-0.476-1.012-0.633c-0.739-0.36-1.475-0.742-2.245-1.018c-1.347-0.482-2.721-0.887-4.08-1.333
		c-2.416-0.793-4.902-0.878-7.41-0.747C9.456,31.295,8.164,31.94,7.015,32.9c-0.228,0.189-0.432,0.44-0.566,0.704
		c-0.438,0.861-0.423,1.86,0.843,2.252c1.686,0.524,3.378,1.033,5.075,1.515c1.084,0.308,2.185,0.555,3.275,0.836
		c0.488,0.125,0.901,0.37,1.178,0.806c0.312,0.491,0.257,0.932-0.213,1.281c-0.238,0.179-0.524,0.311-0.807,0.415
		c-0.951,0.349-1.94,0.504-2.949,0.562c-0.454,0.026-0.906,0.097-1.356,0.162c-0.405,0.058-0.667,0.287-0.735,0.7
		c-0.059,0.362,0.106,0.657,0.528,0.865c0.298,0.147,0.615,0.276,0.938,0.347c0.475,0.106,0.959,0.18,1.443,0.221
		c1.972,0.163,3.952,0.241,5.91,0.565c0.961,0.16,1.926,0.303,2.888,0.457c0.273,0.043,0.546,0.091,0.919-0.224
		C24.153,41.356,24.961,38.21,25.727,34.945z M35.952,126.75c-0.105-0.338-0.156-0.575-0.25-0.794
		c-0.885-2.073-1.772-4.145-2.671-6.212c-0.104-0.242-0.273-0.456-0.443-0.732c-0.369,0.091-0.693,0.15-1.006,0.247
		c-4.068,1.28-8.136,2.559-12.197,3.854c-0.521,0.165-1.034,0.378-1.509,0.643c-0.394,0.219-0.771,0.505-1.072,0.836
		c-0.632,0.691-0.566,1.446,0.117,2.091c0.317,0.302,0.682,0.517,1.13,0.543c0.334,0.021,0.669,0.038,1.003,0.028
		c0.761-0.021,1.521-0.078,2.282-0.09c0.364-0.006,0.733,0.027,1.091,0.095c0.585,0.112,0.901,0.479,0.958,1.067
		c0.017,0.178-0.024,0.362-0.034,0.544c-0.074,1.308,0.431,1.85,1.754,1.875c0.212,0.004,0.434,0.003,0.636-0.051
		c0.499-0.133,1-0.27,1.48-0.454c2.642-1.024,5.279-2.061,7.915-3.098C35.385,127.045,35.62,126.911,35.952,126.75z"/>
</g>
</svg>
