<!DOCTYPE svg PUBLIC "-//W3C//DTD SVG 1.1//EN" "http://www.w3.org/Graphics/SVG/1.1/DTD/svg11.dtd">
<svg version="1.1" xmlns="http://www.w3.org/2000/svg" xmlns:xlink="http://www.w3.org/1999/xlink" x="0px" y="0px"
	 width="542.333px" height="226px" viewBox="0 0 542.333 226" enable-background="new 0 0 542.333 226" xml:space="preserve">
<path fill="#231F20" d="M2.006,203.665c0.294-0.18,0.343-0.47,0.388-0.784c0.471-3.226,0.952-6.453,1.432-9.678
	c0.628-4.221,1.257-8.442,1.888-12.662c0.649-4.34,1.3-8.681,1.956-13.021c0.305-2.02,0.609-4.039,0.933-6.056
	c0.634-3.938,2.075-7.575,4.177-10.953c1.587-2.55,3.462-4.877,5.619-6.962c3.02-2.919,6.401-5.356,10.08-7.389
	c5.88-3.249,12.16-5.34,18.763-6.486c2.795-0.484,5.617-0.757,8.453-0.919c3.607-0.203,7.203-0.069,10.78,0.331
	c6.65,0.744,13.072,2.394,19.163,5.211c2.493,1.155,4.91,2.457,7.195,3.993c0.327,0.219,0.67,0.418,1.065,0.663
	c0.344-0.165,0.706-0.314,1.045-0.502c3.848-2.139,7.844-3.949,11.991-5.427c4.175-1.486,8.442-2.621,12.805-3.407
	c3.126-0.564,6.275-0.941,9.444-1.103c3.169-0.159,6.337-0.136,9.507,0.122c3.845,0.313,7.623,0.956,11.328,2.021
	c4.64,1.334,8.987,3.298,12.898,6.158c3.033,2.218,5.644,4.849,7.592,8.083c1.883,3.125,3.062,6.484,3.409,10.144
	c0.236,2.483,0.054,4.93-0.348,7.372c-1.309,7.94-2.628,15.879-3.945,23.819c-0.899,5.413-1.716,10.841-2.726,16.232
	c-0.897,4.792-2.895,9.119-6.213,12.753c-2.424,2.655-5.417,4.427-8.877,5.394c-1.619,0.451-3.272,0.677-4.956,0.775
	c-4.664,0.278-9.33,0.061-13.994,0.132c-1.221,0.02-2.441,0.003-3.662,0.003c-0.203,0-0.407,0-0.611,0
	c-0.004-0.032-0.009-0.064-0.013-0.099c0.697-0.28,1.402-0.547,2.092-0.847c1.833-0.799,3.468-1.905,4.958-3.237
	c2.966-2.649,5.066-5.915,6.72-9.488c1.144-2.472,2.02-5.041,2.59-7.703c0.332-1.548,0.563-3.118,0.821-4.683
	c0.661-4,1.313-8.002,1.964-12.004c0.754-4.632,1.503-9.266,2.256-13.899c0.465-2.858,0.92-5.72,1.409-8.572
	c0.144-0.841,0.067-1.608-0.265-2.403c-1.697-4.065-4.583-6.925-8.641-8.608c-2.469-1.024-5.05-1.584-7.705-1.861
	c-2.215-0.233-4.432-0.375-6.66-0.317c-2.383,0.063-4.732,0.405-7.047,0.973c-4.393,1.078-8.475,2.892-12.343,5.212
	c-2.28,1.367-4.43,2.917-6.491,4.596c-0.484,0.394-0.733,0.85-0.825,1.455c-0.494,3.224-1.004,6.446-1.513,9.668
	c-0.508,3.221-1.022,6.442-1.531,9.664c-0.65,4.125-1.296,8.25-1.946,12.375c-0.46,2.921-0.972,5.834-1.373,8.762
	c-0.604,4.405-0.423,8.764,1.035,13.009c0.979,2.854,2.546,5.325,4.822,7.329c0.131,0.116,0.241,0.254,0.395,0.419
	c-0.143,0.051-0.221,0.103-0.3,0.103c-13.208,0.003-26.417,0.003-39.791,0.003c0.22-0.213,0.321-0.341,0.448-0.428
	c2.759-1.877,5.033-4.234,6.916-6.979c1.614-2.352,2.845-4.896,3.825-7.573c1.012-2.765,1.551-5.634,1.99-8.533
	c0.684-4.521,1.422-9.033,2.133-13.551c0.882-5.6,1.758-11.2,2.639-16.802c0.384-2.438,0.762-4.878,1.172-7.312
	c0.095-0.562-0.009-0.993-0.39-1.421c-3.766-4.233-8.278-7.365-13.643-9.225c-2.255-0.78-4.579-1.24-6.966-1.437
	c-1.219-0.102-2.436-0.168-3.651-0.115c-4.15,0.178-8.263,0.59-12.222,1.986c-4.999,1.763-8.993,4.817-11.998,9.18
	c-0.335,0.485-0.554,0.995-0.642,1.589c-0.444,2.984-0.919,5.964-1.377,8.947c-0.522,3.403-1.038,6.809-1.557,10.215
	c-0.588,3.855-1.177,7.714-1.764,11.57c-0.381,2.501-0.768,5.002-1.135,7.505c-0.33,2.238-0.362,4.483-0.191,6.745
	c0.162,2.141,0.498,4.237,1.145,6.281c0.508,1.605,1.19,3.129,2.159,4.523c1.375,1.979,3.133,3.479,5.351,4.435
	c0.19,0.082,0.375,0.176,0.547,0.376c-0.197,0.011-0.394,0.028-0.591,0.028c-5.492,0.001-10.984,0.02-16.476-0.008
	c-2.558-0.013-5.034-0.488-7.35-1.626c-2.747-1.35-4.67-3.47-5.864-6.276c-0.711-1.67-1.11-3.415-1.305-5.214
	c-0.037-0.338,0.073-0.766-0.4-0.924C2.006,206.105,2.006,204.885,2.006,203.665"/>
<g>
	<path fill="#231F20" d="M482.571,3.25c0.183,0.102,0.356,0.226,0.551,0.301c0.705,0.275,1.167,0.786,1.375,1.494
		c0.135,0.462,0.208,0.952,0.242,1.434c0.098,1.413-0.107,2.797-0.472,4.162c-0.742,2.795-1.896,5.404-3.486,7.821
		c-1.139,1.729-2.607,3.137-4.246,4.377c-3.246,2.453-6.93,3.939-10.861,4.854c-1.216,0.282-2.451,0.485-3.674,0.739
		c-1.771,0.366-3.468,0.949-5.083,1.766c-0.968,0.489-1.794,1.137-2.477,1.988c-0.685,0.857-1.399,1.691-2.122,2.517
		c-2.433,2.778-5.408,4.719-8.954,5.766c-1.376,0.407-2.79,0.63-4.215,0.811c-1.763,0.223-3.529,0.174-5.298,0.177
		c-1.922,0.003-3.844-0.014-5.765-0.034c-0.365-0.004-0.728-0.069-1.091-0.09c-2.532-0.144-4.848,0.354-6.716,2.231
		c-0.688,0.689-1.387,1.378-2.151,1.975c-1.466,1.143-3.181,1.803-4.956,2.283c-2.755,0.744-5.569,1.067-8.42,0.935
		c-2.62-0.121-5.238-0.252-7.861-0.186c-0.696,0.018-1.399,0.085-2.087,0.207c-1.228,0.22-1.734,0.752-1.915,1.996
		c-0.082,0.569-0.074,1.154-0.08,1.732c-0.004,0.511,0.211,0.939,0.56,1.314c0.488,0.53,1.089,0.875,1.758,1.117
		c1.16,0.419,2.36,0.637,3.589,0.622c2.469-0.032,4.938-0.099,7.408-0.158c1.31-0.032,2.621-0.075,3.931-0.121
		c2.226-0.078,4.45-0.164,6.674-0.242c1.312-0.046,2.621-0.11,3.933-0.117c3.051-0.018,6.103-0.047,9.152,0.007
		c2.407,0.043,4.816,0.172,7.22,0.32c2.19,0.135,4.377,0.349,6.564,0.527c0.152,0.012,0.306,0.028,0.456,0.018
		c2.951-0.202,5.904-0.375,8.852-0.62c2.796-0.231,5.588-0.514,8.376-0.82c2.576-0.283,5.149-0.6,7.719-0.95
		c3.232-0.44,6.466-0.89,9.686-1.408c4.065-0.654,8.123-1.346,12.172-2.088c3.209-0.587,6.406-1.242,9.597-1.927
		c2.713-0.581,5.412-1.229,8.106-1.888c1.161-0.283,2.288-0.274,3.429,0.069c2.12,0.638,4.075,1.628,5.932,2.817
		c3.541,2.268,6.64,5.052,9.485,8.14c1.885,2.046,3.63,4.198,5.188,6.499c0.224,0.328,0.435,0.665,0.627,1.011
		c1.379,2.462-0.149,5.308-2.649,5.906c-0.596,0.142-1.187,0.13-1.807,0.08c-2.976-0.235-5.723-1.218-8.346-2.547
		c-2.518-1.274-5.192-1.899-7.95-2.313c-1.551-0.233-3.105-0.211-4.655-0.136c-1.559,0.075-3.065,0.481-4.516,1.076
		c-3.668,1.508-7.325,3.041-11.009,4.505c-4.053,1.61-8.131,3.166-12.335,4.342c-2.376,0.665-4.78,1.251-7.194,1.757
		c-4.354,0.914-8.726,1.744-13.091,2.605c-1.944,0.383-3.892,0.744-5.832,1.144c-1.205,0.25-2.33,0.726-3.361,1.398
		c-0.326,0.213-0.631,0.488-0.873,0.792c-0.425,0.535-0.44,1.079,0.019,1.581c0.361,0.396,0.807,0.762,1.287,0.996
		c0.899,0.441,1.827,0.869,2.788,1.138c2.905,0.814,5.822,1.599,8.757,2.305c5.368,1.293,10.789,2.332,16.229,3.267
		c3.035,0.522,6.073,1.035,9.116,1.503c3.165,0.487,6.337,0.916,9.506,1.37c4.043,0.581,8.085,1.174,12.131,1.737
		c1.723,0.239,3.452,0.408,5.178,0.621c1.727,0.214,3.446,0.464,5.11,0.993c2.436,0.773,4.493,2.154,6.333,3.9
		c1.961,1.861,3.555,4.016,5.057,6.245c0.682,1.012,1.321,2.051,2.011,3.058c0.757,1.106,1.534,2.199,2.325,3.281
		c1.067,1.461,1.92,3.042,2.668,4.683c0.951,2.088,1.769,4.226,2.121,6.503c0.139,0.895,0.173,1.833,0.071,2.731
		c-0.183,1.642-1.186,2.699-2.719,3.249c-1.143,0.408-2.327,0.478-3.52,0.295c-2.305-0.353-4.378-1.303-6.335-2.516
		c-2.422-1.5-4.603-3.311-6.673-5.258c-1.864-1.755-3.687-3.558-5.585-5.276c-1.668-1.513-3.573-2.652-5.783-3.212
		c-1.186-0.299-2.381-0.508-3.61-0.521c-1.096-0.013-2.19-0.123-3.286-0.127c-0.88-0.004-1.769,0.181-2.642,0.117
		c-3.198-0.236-6.401-0.069-9.602-0.17c-1.491-0.049-2.982-0.107-4.473-0.186c-2.129-0.112-4.257-0.233-6.384-0.373
		c-1.551-0.101-3.1-0.221-4.646-0.359c-2.638-0.235-5.279-0.463-7.912-0.748c-3.027-0.329-6.052-0.689-9.072-1.09
		c-2.717-0.36-5.428-0.774-8.137-1.196c-3.161-0.492-6.319-1.001-9.473-1.535c-2.374-0.403-4.742-0.84-7.107-1.291
		c-3.352-0.64-6.703-1.291-10.049-1.967c-3.943-0.795-7.881-1.618-11.821-2.435c-5.252-1.09-10.503-2.186-15.755-3.279
		c-0.925-0.193-1.855-0.359-2.773-0.581c-1.976-0.478-3.98-0.578-5.996-0.5c-4.603,0.178-8.964,1.337-13.156,3.213
		c-1.063,0.476-2.044,1.07-3.005,1.725c-2.218,1.512-4.469,2.975-6.726,4.428c-0.534,0.344-1.14,0.584-1.725,0.842
		c-2.875,1.267-5.766,2.494-8.627,3.791c-4.388,1.988-8.743,4.054-13.138,6.026c-3.618,1.625-7.312,3.069-11.094,4.273
		c-3.607,1.146-7.262,2.104-11.015,2.644c-0.904,0.13-1.812,0.23-2.716,0.365c-0.451,0.067-0.899,0.167-1.341,0.278
		c-3.726,0.938-7.423,1.977-11.118,3.025c-2.393,0.68-4.66,1.617-6.916,2.618c-0.334,0.148-0.678,0.276-1.024,0.392
		c-1.371,0.454-2.642,0.191-3.851-0.542c-0.854-0.519-1.391-1.265-1.653-2.216c-0.104-0.38-0.186-0.765-0.264-1.089
		c-0.243-0.287-0.518-0.298-0.794-0.313c-0.707-0.04-1.4,0.037-2.082,0.229c-0.885,0.25-1.784,0.41-2.709,0.343
		c-1.441-0.104-2.484-0.812-3.04-2.14c-0.54-1.29-0.214-2.472,0.706-3.463c0.45-0.486,0.985-0.93,1.56-1.253
		c0.981-0.551,1.994-1.068,3.044-1.467c4.533-1.725,9.084-3.4,13.629-5.095c0.257-0.095,0.508-0.238,0.772-0.276
		c2.02-0.287,3.801-1.272,5.683-1.947c7.93-2.849,15.654-6.195,23.313-9.697c4.77-2.181,9.519-4.409,14.276-6.619
		c0.269-0.125,0.526-0.273,0.793-0.411c-0.102-0.443-0.444-0.475-0.705-0.586c-2.278-0.966-4.613-1.761-7.009-2.384
		c-2.568-0.667-5.128-1.367-7.594-2.365c-1.332-0.539-2.615-1.17-3.817-1.962c-0.9-0.592-1.697-1.293-2.368-2.135
		c-0.879-1.103-1.396-2.363-1.527-3.762c-0.128-1.371-0.081-2.741,0.214-4.096c0.493-2.272,1.854-3.87,3.868-4.946
		c1.746-0.931,3.632-1.41,5.584-1.652c2.371-0.293,4.746-0.27,7.123-0.068c0.328,0.028,0.66,0.004,1.073,0.004
		c0-0.246,0.049-0.458-0.008-0.636c-0.231-0.726-0.509-1.438-0.736-2.165c-0.154-0.488-0.433-0.856-0.842-1.157
		c-1.477-1.083-2.921-2.206-4.416-3.261c-4.34-3.066-8.881-5.81-13.543-8.355c-4.179-2.281-8.423-4.43-12.788-6.332
		c-3.103-1.352-6.229-2.653-9.366-3.923c-0.926-0.375-1.928-0.561-2.893-0.843c-0.338-0.098-0.657-0.086-0.978,0.067
		c-0.49,0.236-1.007,0.227-1.523,0.126c-2.934-0.571-5.892-0.973-8.853-1.359c-1.268-0.165-2.542-0.287-3.828-0.257
		c-0.956,0.023-1.883-0.165-2.695-0.722c-1.122-0.768-1.56-1.839-1.357-3.168c0.097-0.632,0.42-1.16,0.967-1.49
		c0.439-0.265,0.924-0.458,1.402-0.652c0.304-0.125,0.631-0.192,0.995-0.298c-0.149-0.302-0.393-0.324-0.611-0.387
		c-1.141-0.33-2.293-0.626-3.419-1.001c-1.213-0.402-2.235-1.12-3.02-2.136c-0.793-1.029-0.9-2.172-0.442-3.37
		c0.219-0.574,0.561-1.076,0.979-1.533c1.523-1.664,3.445-2.469,5.657-2.654c1.52-0.127,3.038-0.295,4.562-0.34
		c1.408-0.042,2.8,0.215,4.131,0.687c1.437,0.51,2.856,1.068,4.28,1.615c1.48,0.569,2.992,1.073,4.426,1.744
		c2.931,1.371,6.058,2.015,9.188,2.682c3.643,0.775,7.243,1.709,10.796,2.821c3.845,1.204,7.642,2.545,11.364,4.08
		c3.102,1.278,6.189,2.596,9.227,4.018c4.115,1.928,8.192,3.938,12.256,5.974c3.626,1.818,7.214,3.713,10.807,5.595
		c0.54,0.282,1.045,0.382,1.658,0.298c2.144-0.295,4.296-0.544,6.448-0.777c0.816-0.088,1.644-0.082,2.466-0.132
		c0.294-0.018,0.586-0.077,0.971-0.13c-0.077-0.317-0.084-0.568-0.194-0.758c-0.442-0.764-0.88-1.536-1.392-2.253
		c-0.902-1.267-1.876-2.481-2.787-3.743c-1.389-1.926-2.401-4.03-2.868-6.375c-0.56-2.825-0.258-5.585,0.697-8.276
		c1.524-4.293,4.188-7.746,7.814-10.482c2.994-2.26,6.284-3.965,9.781-5.298c3.581-1.364,7.279-2.265,11.07-2.777
		c2.266-0.306,4.545-0.514,6.814-0.799c2.661-0.335,5.319-0.699,7.979-1.062c2.719-0.37,5.438-0.74,8.154-1.136
		c3.528-0.515,7.055-1.055,10.583-1.587c3.346-0.505,6.693-1.005,10.039-1.523c2.953-0.459,5.9-0.944,8.853-1.411
		c3.223-0.508,6.448-1.01,9.671-1.513c3.436-0.535,6.869-1.075,10.306-1.602c4.129-0.633,8.261-1.256,12.391-1.885
		c1.145-0.174,2.291-0.354,3.434-0.535c0.236-0.037,0.501-0.013,0.651-0.266C482.083,3.25,482.327,3.25,482.571,3.25 M408.338,38.86
		c0.003-0.044,0.005-0.087,0.008-0.13c0.331,0,0.662-0.003,0.994,0.001c1.951,0.025,3.903,0.06,5.854,0.075
		c1.802,0.014,3.604-0.044,5.4,0.021c3.05,0.111,6.097,0.13,9.147-0.004c2.293-0.101,4.557-0.394,6.792-0.904
		c2.812-0.642,5.497-1.621,7.957-3.154c2.15-1.342,3.982-3.016,5.321-5.192c0.188-0.303,0.446-0.586,0.362-1.067
		c-2.13-0.447-4.319-0.585-6.479-0.904c-2.17-0.32-4.354-0.54-6.529-0.817c-2.167-0.276-4.333-0.569-6.499-0.854
		c2.896-0.246,5.785-0.374,8.673-0.489c3.168-0.125,6.337-0.253,9.506-0.353c2.621-0.083,5.244-0.154,7.866-0.177
		c1.622-0.014,3.229-0.136,4.828-0.383c3.226-0.498,6.287-1.492,9.112-3.151c3.727-2.187,6.548-5.245,8.602-9.026
		c0.7-1.29,1.254-2.645,1.681-4.05c0.084-0.278,0.24-0.565,0.025-0.933c-0.414,0.036-0.837,0.046-1.251,0.113
		c-3.549,0.576-7.095,1.167-10.645,1.743c-2.436,0.395-4.875,0.772-7.312,1.161c-2.888,0.462-5.775,0.936-8.663,1.393
		c-2.919,0.461-5.841,0.907-8.761,1.361c-2.589,0.402-5.177,0.811-7.768,1.207s-5.182,0.779-7.772,1.167
		c-3.526,0.529-7.05,1.061-10.576,1.582c-1.869,0.276-3.74,0.531-5.61,0.795c-1.99,0.281-3.979,0.573-5.972,0.841
		c-2.083,0.28-4.169,0.537-6.255,0.802c-1.752,0.223-3.502,0.469-5.258,0.659c-2.188,0.235-4.346,0.597-6.455,1.231
		c-6.044,1.814-11.392,4.802-15.771,9.4c-1.72,1.806-3.121,3.83-3.957,6.201c-0.639,1.814-0.87,3.668-0.48,5.581
		c0.265,1.308,0.821,2.486,1.508,3.611c1.669,2.74,3.161,5.574,4.379,8.54c0.693,1.69,1.258,3.434,1.876,5.155
		c0.102,0.281,0.215,0.572,0.006,0.906c-1.397,0.096-2.804,0.106-4.191-0.034c-1.435-0.146-2.862-0.131-4.294-0.132
		c-2.686-0.002-5.369,0.011-8.055,0.028c-0.503,0.003-0.962-0.105-1.402-0.341c-1.131-0.604-2.271-1.189-3.399-1.792
		c-3.014-1.609-6.028-3.215-9.036-4.835c-4.618-2.489-9.26-4.929-14.002-7.181c-4.301-2.043-8.67-3.916-13.168-5.488
		c-3.688-1.29-7.438-2.349-11.271-3.119c-2.215-0.444-4.447-0.747-6.686-1.015c-0.814-0.098-1.639-0.131-2.459-0.195
		c-0.517-0.04-0.895,0.158-1.082,0.653c-0.128,0.342-0.273,0.685-0.34,1.041c-0.298,1.618-0.58,3.239-0.843,4.863
		c-0.052,0.319,0.004,0.656,0.011,1.023c0.312,0.149,0.576,0.293,0.854,0.405c4.041,1.64,8.103,3.232,12.122,4.923
		c5.908,2.485,11.67,5.28,17.286,8.373c2.781,1.53,5.514,3.144,8.148,4.912c2.524,1.696,5.03,3.422,7.369,5.478
		c0.156-0.216,0.306-0.4,0.431-0.597c0.375-0.593,0.721-1.205,1.114-1.786c0.79-1.17,1.719-2.215,2.884-3.032
		c1.411-0.99,2.962-1.524,4.702-1.551c1.795-0.027,3.44,0.456,4.971,1.344c2.611,1.515,4.546,3.658,5.81,6.4
		c0.556,1.208,0.896,2.5,0.84,3.811c-0.075,1.793-0.285,3.586-0.539,5.364c-0.559,3.898-1.406,7.738-2.489,11.525
		c-0.084,0.293-0.175,0.586-0.225,0.886c-0.026,0.156,0.025,0.327,0.046,0.509c0.154-0.016,0.255-0.002,0.328-0.039
		c0.299-0.151,0.594-0.31,0.884-0.478c2.426-1.408,4.815-2.885,7.395-4.011c1.54-0.672,3.104-1.28,4.778-1.531
		c1.412-0.211,2.804-0.102,4.152,0.363c1.317,0.455,2.229,1.352,2.685,2.681c0.119,0.345,0.234,0.702,0.271,1.061
		c0.134,1.272,0.259,2.545,0.339,3.82c0.061,0.976,0.114,1.085,1.05,1.292c0.119,0.026,0.241,0.04,0.36,0.063
		c2.034,0.397,4.069,0.796,6.104,1.194c3.98,0.779,7.959,1.561,11.941,2.336c6.225,1.213,12.447,2.435,18.679,3.625
		c4.222,0.806,8.449,1.596,12.684,2.333c3.846,0.67,7.7,1.286,11.56,1.874c3.857,0.588,7.721,1.14,11.59,1.654
		c3.052,0.404,6.114,0.749,9.175,1.08c2.941,0.317,5.883,0.633,8.831,0.858c3.953,0.301,7.911,0.53,11.869,0.761
		c2.526,0.146,5.054,0.266,7.584,0.347c2.316,0.075,4.634,0.096,6.952,0.115c2.41,0.018,4.82-0.011,7.23,0.012
		c0.853,0.008,1.709,0.061,2.554,0.173c3.156,0.417,5.843,1.844,8.228,3.904c1.876,1.619,3.473,3.508,5.166,5.305
		c1.759,1.87,3.569,3.68,5.708,5.121c1.524,1.028,3.093,1.975,4.929,2.33c0.501,0.097,1.033,0.135,1.538,0.082
		c0.732-0.079,1.158-0.549,1.195-1.282c0.02-0.417-0.052-0.852-0.161-1.258c-0.318-1.19-0.891-2.274-1.558-3.297
		c-1.901-2.912-3.812-5.817-5.763-8.696c-1.3-1.919-2.698-3.768-4.266-5.483c-1.814-1.985-3.914-3.567-6.415-4.599
		c-2.133-0.879-4.372-1.324-6.637-1.655c-2.353-0.342-4.709-0.642-7.062-0.978c-3.195-0.457-6.391-0.927-9.587-1.397
		c-3.435-0.506-6.878-0.976-10.304-1.541c-4.179-0.689-8.354-1.412-12.513-2.209c-5.271-1.009-10.512-2.157-15.705-3.505
		c-3.54-0.919-7.068-1.888-10.602-2.839c-1.418-0.382-2.797-0.867-4.089-1.575c-0.886-0.485-1.717-1.045-2.41-1.795
		c-0.988-1.073-1.239-2.552,0.149-3.782c0.838-0.743,1.8-1.261,2.85-1.603c1.102-0.357,2.221-0.661,3.339-0.961
		c4.687-1.261,9.435-2.247,14.203-3.125c4.649-0.856,9.293-1.722,13.906-2.762c2.56-0.577,5.098-1.231,7.573-2.113
		c4.772-1.702,9.409-3.738,14.028-5.811c2.812-1.26,5.622-2.52,8.439-3.766c2.592-1.148,5.27-1.421,8.049-0.802
		c1.881,0.419,3.674,1.125,5.527,1.626c1.963,0.531,3.78,1.342,5.492,2.433c0.928,0.59,1.944,1.014,3.008,1.321
		c0.684,0.198,1.377,0.264,2.081,0.168c0.461-0.062,0.884-0.208,1.182-0.709c-0.153-0.279-0.285-0.585-0.473-0.851
		c-0.741-1.044-1.472-2.099-2.257-3.109c-2.312-2.972-4.878-5.701-7.881-7.99c-1.678-1.278-3.452-2.398-5.417-3.208
		c-1.253-0.516-2.493-0.806-3.805-0.245c-0.027,0.011-0.059,0.011-0.089,0.017c-3.963,0.847-7.92,1.731-11.894,2.528
		c-2.867,0.576-5.756,1.052-8.64,1.545c-2.372,0.406-4.75,0.782-7.129,1.151c-2.287,0.356-4.577,0.699-6.869,1.024
		c-1.989,0.282-3.984,0.537-5.979,0.795c-2.235,0.289-4.472,0.574-6.708,0.848c-1.33,0.163-2.663,0.303-3.994,0.452
		c-1.363,0.152-2.723,0.317-4.087,0.45c-1.607,0.156-3.215,0.29-4.825,0.424c-2.184,0.181-4.37,0.353-6.554,0.527
		c-0.184,0.015-0.365,0.021-0.548,0.034c-1.336,0.089-2.674,0.18-4.01,0.266c-0.09,0.006-0.181-0.022-0.271-0.031
		c-1.123-0.101-2.244-0.208-3.368-0.302c-0.91-0.075-1.822-0.141-2.733-0.2c-1.7-0.11-3.402-0.296-5.104-0.296
		c-2.925-0.001-5.853-0.138-8.778,0.11c-1.728,0.147-3.469,0.156-5.205,0.224c-0.426,0.017-0.854,0.007-1.279,0.035
		c-1.52,0.096-3.035,0.235-4.557,0.299c-2.221,0.093-4.445,0.136-6.67,0.2c-0.091,0.003-0.182,0.014-0.273,0.014
		c-2.137-0.007-4.271-0.019-6.406-0.02c-0.439,0-0.764-0.114-0.929-0.568c-0.896-2.465-1.807-4.927-2.382-7.493
		c-0.132-0.589-0.188-1.183-0.103-1.809c0.241-1.767,0.782-3.446,1.356-5.119c0.065-0.194,0.198-0.365,0.334-0.604
		c0.338,0.023,0.668,0.029,0.992,0.071c0.665,0.086,1.324,0.218,1.991,0.282c2.398,0.23,4.796,0.458,7.198,0.65
		c1.765,0.14,3.532,0.121,5.298-0.056c4.212-0.423,7.856-2.122,11.035-4.873c0.118-0.102,0.172-0.28,0.309-0.514
		c-1.523-0.313-2.975-0.46-4.413-0.684C411.265,39.333,409.802,39.094,408.338,38.86z M305.295,117.855
		c-0.112,0.646,0.025,1.146,0.215,1.626c0.426,1.076,0.866,2.147,1.318,3.214c0.492,1.16,0.5,1.154,1.72,1.235
		c0.182,0.014,0.364,0.031,0.547,0.045c3.418,0.274,6.826,0.135,10.217-0.343c4.458-0.626,8.773-1.803,12.955-3.467
		c3.432-1.367,6.774-2.917,10.033-4.655c2.825-1.506,5.672-2.968,8.508-4.452c2.595-1.356,5.211-2.667,7.904-3.819
		c0.868-0.371,1.758-0.703,2.588-1.147c1.855-0.991,3.673-2.047,5.513-3.065c1.788-0.989,3.581-1.967,5.212-3.212
		c1.05-0.799,1.996-1.698,2.743-2.792c0.84-1.229,1.216-2.588,1.064-4.071c-0.098-0.948-0.32-1.866-0.93-2.639
		c-0.586-0.738-1.35-1.037-2.269-0.827c-0.411,0.094-0.811,0.261-1.198,0.437c-1.137,0.515-2.255,1.076-3.397,1.576
		c-3.185,1.393-6.372,2.776-9.571,4.134c-0.614,0.261-1.018,0.636-1.173,1.281c-0.029,0.118-0.08,0.231-0.122,0.345
		c-0.584,1.571-1.162,3.145-1.757,4.712c-0.138,0.361-0.339,0.698-0.492,1.01c-0.465,0.034-0.699-0.241-0.977-0.411
		c-1.275-0.778-2.557-1.548-3.814-2.352c-0.598-0.383-1.144-0.414-1.796-0.106c-1.489,0.701-3.005,1.345-4.515,1.999
		c-5.651,2.447-11.292,4.917-16.96,7.325c-6.819,2.896-13.713,5.608-20.705,8.061C305.873,117.597,305.6,117.729,305.295,117.855z
		 M294.929,34.945c-0.399-0.253-0.689-0.476-1.012-0.633c-0.739-0.36-1.475-0.742-2.245-1.018c-1.347-0.482-2.721-0.887-4.08-1.333
		c-2.416-0.793-4.902-0.878-7.41-0.747c-1.523,0.081-2.815,0.726-3.965,1.686c-0.228,0.189-0.432,0.44-0.566,0.704
		c-0.438,0.861-0.423,1.86,0.843,2.252c1.686,0.524,3.378,1.033,5.075,1.515c1.084,0.308,2.185,0.555,3.275,0.836
		c0.488,0.125,0.901,0.37,1.178,0.806c0.312,0.491,0.257,0.932-0.213,1.281c-0.238,0.179-0.524,0.311-0.807,0.415
		c-0.951,0.349-1.94,0.504-2.949,0.562c-0.454,0.026-0.906,0.097-1.356,0.162c-0.405,0.058-0.667,0.287-0.735,0.7
		c-0.059,0.362,0.106,0.657,0.528,0.865c0.298,0.147,0.615,0.276,0.938,0.347c0.475,0.106,0.959,0.18,1.443,0.221
		c1.972,0.163,3.952,0.241,5.91,0.565c0.961,0.16,1.926,0.303,2.888,0.457c0.273,0.043,0.546,0.091,0.919-0.224
		C293.355,41.356,294.163,38.21,294.929,34.945z M305.154,126.75c-0.105-0.338-0.156-0.575-0.25-0.794
		c-0.885-2.073-1.772-4.145-2.671-6.212c-0.104-0.242-0.273-0.456-0.443-0.732c-0.369,0.091-0.693,0.15-1.006,0.247
		c-4.068,1.28-8.136,2.559-12.197,3.854c-0.521,0.165-1.034,0.378-1.509,0.643c-0.394,0.219-0.771,0.505-1.072,0.836
		c-0.632,0.691-0.566,1.446,0.117,2.091c0.317,0.302,0.682,0.517,1.13,0.543c0.334,0.021,0.669,0.038,1.003,0.028
		c0.761-0.021,1.521-0.078,2.282-0.09c0.364-0.006,0.733,0.027,1.091,0.095c0.585,0.112,0.901,0.479,0.958,1.067
		c0.017,0.178-0.024,0.362-0.034,0.544c-0.074,1.308,0.431,1.85,1.754,1.875c0.212,0.004,0.434,0.003,0.636-0.051
		c0.499-0.133,1-0.27,1.48-0.454c2.642-1.024,5.279-2.061,7.915-3.098C304.587,127.045,304.822,126.911,305.154,126.75z"/>
	<path fill="#231F20" d="M369.598,221.301c-0.168,0.015-0.335,0.038-0.503,0.038c-5.733,0.002-11.469,0.036-17.204-0.014
		c-2.116-0.02-4.171-0.484-6.117-1.363c-1.297-0.586-2.425-1.4-3.396-2.437c-0.229-0.242-0.463-0.477-0.738-0.757
		c-0.362,0.13-0.712,0.226-1.036,0.376c-3.912,1.825-7.995,3.155-12.195,4.118c-2.405,0.553-4.838,0.967-7.297,1.225
		c-1.668,0.175-3.33,0.354-5.011,0.367c-1.003,0.007-2.005,0.118-3.009,0.138c-2.103,0.04-4.196-0.157-6.292-0.31
		c-1.978-0.144-3.935-0.421-5.889-0.745c-3.438-0.571-6.799-1.433-10.093-2.563c-3.616-1.243-7.085-2.809-10.379-4.755
		c-3.298-1.949-6.318-4.249-9.021-6.974c-2.141-2.158-3.988-4.532-5.481-7.176c-1.884-3.334-3.051-6.896-3.414-10.725
		c-0.426-4.479,0.351-8.74,2.143-12.841c1.419-3.248,3.404-6.113,5.79-8.724c3.141-3.433,6.816-6.17,10.843-8.463
		c5.786-3.295,12.001-5.396,18.52-6.631c4.144-0.784,8.326-1.184,12.552-1.182c2.841,0.002,5.672,0.083,8.493,0.403
		c4.13,0.472,8.191,1.269,12.171,2.49c3.273,1.006,6.447,2.254,9.502,3.801c3.663,1.856,7.056,4.12,10.136,6.843
		c2.643,2.337,4.918,4.994,6.758,8.011c2.042,3.348,3.364,6.955,3.884,10.854c0.334,2.507,0.165,4.984-0.231,7.465
		c-0.573,3.581-1.205,7.155-1.64,10.755c-0.221,1.834-0.149,3.718-0.052,5.569c0.118,2.233,0.634,4.404,1.528,6.468
		c1.209,2.789,3.105,4.933,5.895,6.23c0.271,0.126,0.539,0.252,0.81,0.378C369.614,221.216,369.605,221.259,369.598,221.301
		 M312.858,166.811c-2.256-0.091-4.584,0.127-6.905,0.522c-4.562,0.777-8.852,2.281-12.761,4.771
		c-3.155,2.01-5.822,4.527-7.637,7.848c-1.738,3.179-2.387,6.549-1.718,10.15c0.478,2.573,1.552,4.868,3.113,6.944
		c2.494,3.316,5.742,5.7,9.451,7.473c4.743,2.269,9.783,3.384,15.021,3.573c5.233,0.191,10.342-0.541,15.259-2.393
		c4.281-1.613,8.146-3.886,11.195-7.363c3.08-3.513,4.78-7.529,4.348-12.297c-0.177-1.97-0.721-3.832-1.616-5.585
		c-1.365-2.678-3.311-4.887-5.658-6.743c-3.053-2.414-6.484-4.102-10.192-5.236C320.915,167.301,316.988,166.676,312.858,166.811z"
		/>
</g>
<path fill="#231F20" d="M429.696,221.131c0.869-0.397,1.717-0.735,2.518-1.161c2.86-1.518,5.129-3.713,7.004-6.316
	c2.93-4.071,4.776-8.63,5.856-13.502c0.336-1.515,0.509-3.065,0.725-4.604c0.408-2.896,0.791-5.797,1.186-8.697
	c0.339-2.475,0.681-4.95,1.021-7.428c0.083-0.603,0.127-1.214,0.25-1.81c0.274-1.336-0.076-2.538-0.726-3.683
	c-0.195-0.343-0.421-0.675-0.665-0.982c-1.697-2.141-3.853-3.612-6.455-4.45c-1.775-0.572-3.573-1.032-5.418-1.295
	c-1.509-0.216-3.027-0.313-4.546-0.436c-1.893-0.15-3.78-0.151-5.665-0.099c-4.168,0.117-8.25,0.759-12.148,2.325
	c-5.021,2.018-8.977,5.34-12.01,9.797c-0.28,0.411-0.456,0.846-0.543,1.339c-0.571,3.274-1.158,6.544-1.738,9.816
	c-0.538,3.03-1.095,6.059-1.594,9.098c-0.172,1.048-0.225,2.12-0.278,3.183c-0.044,0.854-0.026,1.708-0.005,2.563
	c0.075,3.167,0.612,6.246,1.841,9.18c0.959,2.29,2.353,4.264,4.351,5.779c0.832,0.631,1.744,1.117,2.697,1.533
	c0.221,0.096,0.445,0.181,0.654,0.392c-0.196,0.013-0.391,0.033-0.586,0.033c-5.126,0.002-10.252,0.047-15.377-0.02
	c-2.248-0.029-4.508-0.172-6.682-0.881c-2.559-0.834-4.751-2.189-6.371-4.384c-1.331-1.8-2.145-3.828-2.557-6.011
	c-0.604-3.211-0.528-6.414,0.048-9.635c0.95-5.312,1.807-10.639,2.707-15.958c0.271-1.594,0.537-3.188,0.848-4.772
	c0.844-4.324,2.666-8.218,5.257-11.763c3.341-4.575,7.55-8.183,12.379-11.109c5.48-3.32,11.385-5.559,17.619-6.965
	c3.815-0.862,7.685-1.366,11.59-1.563c2.131-0.107,4.267-0.204,6.4-0.188c2.987,0.024,5.97,0.229,8.938,0.614
	c3.276,0.427,6.493,1.105,9.635,2.121c4.213,1.359,8.153,3.259,11.619,6.054c2.871,2.315,5.154,5.104,6.654,8.489
	c1.162,2.622,1.758,5.367,1.809,8.25c0.045,2.547-0.296,5.046-0.664,7.55c-0.473,3.226-0.932,6.456-1.392,9.684
	c-0.513,3.592-1,7.187-1.539,10.773c-0.36,2.396-1.159,4.67-2.139,6.88c-0.883,1.99-1.982,3.85-3.372,5.528
	c-2.786,3.359-6.315,5.507-10.593,6.404c-1.137,0.239-2.287,0.316-3.444,0.406c-2.652,0.207-5.306,0.188-7.953,0.103
	c-2.957-0.095-5.913-0.104-8.869-0.127C429.894,221.187,429.814,221.156,429.696,221.131"/>
<path fill="#231F20" d="M229.314,132.253c0.922-0.14,29.944-0.132,30.702-0.005c0.237,0.173,0.211,0.409,0.173,0.661
	c-0.369,2.439-0.733,4.883-1.098,7.324c-0.589,3.948-1.176,7.897-1.768,11.847c-0.457,3.044-0.923,6.087-1.378,9.131
	c-0.569,3.798-1.127,7.597-1.695,11.396c-0.527,3.525-1.064,7.052-1.59,10.578c-0.526,3.526-1.039,7.056-1.564,10.583
	c-0.435,2.925-0.88,5.848-1.318,8.771c-0.466,3.104-0.93,6.209-1.396,9.313c-0.433,2.895-0.865,5.787-1.303,8.681
	c-0.108,0.71-0.228,0.806-0.943,0.838c-0.213,0.008-0.427,0.005-0.641,0.005c-9.671,0-19.342,0-29.014,0c-0.33,0-0.661,0-1.141,0
	c0.184-0.193,0.248-0.289,0.336-0.348c4.928-3.36,8.258-7.961,10.461-13.441c1.202-2.99,1.913-6.098,2.369-9.281
	c0.551-3.861,1.171-7.714,1.757-11.57c0.527-3.466,1.045-6.933,1.572-10.398c0.439-2.892,0.887-5.784,1.328-8.676
	c0.536-3.526,1.076-7.051,1.601-10.578c0.274-1.837,0.529-3.678,0.772-5.521c0.079-0.603,0.116-1.214,0.131-1.821
	c0.022-0.884,0.007-1.771,0.006-2.654c-0.002-3.188-0.664-6.234-1.986-9.133c-0.938-2.056-2.301-3.801-3.975-5.31
	C229.586,132.531,229.47,132.407,229.314,132.253"/>
<path fill="#231F20" d="M184.841,159.484c0.302-0.071,0.418-0.122,0.534-0.122c4.484-0.003,8.968-0.013,13.452,0.004
	c5.575,0.019,11.15,0.06,16.626,0.091c0.326,0.263,0.282,0.502,0.243,0.75c-0.434,2.831-0.865,5.663-1.294,8.495
	c-0.457,3.013-0.908,6.027-1.365,9.04c-0.526,3.465-1.06,6.928-1.582,10.393c-0.645,4.28-1.276,8.561-1.924,12.839
	c-0.565,3.736-1.147,7.471-1.717,11.205c-0.4,2.621-0.793,5.242-1.186,7.865c-0.192,1.286-0.198,1.296-1.475,1.296
	c-9.762,0.001-19.523,0.001-29.285-0.001c-0.293,0-0.585-0.024-1.061-0.047c0.314-0.236,0.472-0.363,0.639-0.478
	c4.462-3.054,7.559-7.2,9.74-12.093c0.986-2.21,1.749-4.492,2.249-6.853c0.341-1.609,0.554-3.243,0.809-4.869
	c0.78-4.968,1.553-9.936,2.328-14.905c0.179-1.144,0.427-2.282,0.519-3.433c0.116-1.451,0.291-2.896,0.145-4.373
	c-0.156-1.578-0.256-3.158-0.6-4.709c-0.572-2.592-1.553-5.011-3.13-7.155c-0.557-0.756-1.243-1.419-1.874-2.12
	C185.412,160.062,185.178,159.833,184.841,159.484"/>
<path fill="#231F20" d="M205.847,149.996c-2.372,0.058-4.629-0.399-6.789-1.305c-2.177-0.913-4.05-2.247-5.422-4.2
	c-2.074-2.953-2.048-6.443,0.037-9.391c1.192-1.687,2.781-2.892,4.617-3.783c3.594-1.744,7.382-2.002,11.25-1.303
	c2.308,0.418,4.43,1.355,6.28,2.822c1.078,0.855,2.046,1.832,2.707,3.063c1.716,3.197,1.339,6.221-0.827,9.059
	c-1.229,1.611-2.852,2.738-4.683,3.562C210.734,149.546,208.338,150.063,205.847,149.996"/>
<path fill="#231F20" d="M488.708,166.706c-6.39,0.105-11.938-5.163-11.914-12.021c0.022-6.857,5.831-11.933,12.115-11.848
	c6.299,0.086,11.814,5.36,11.788,11.991C500.67,161.254,495.217,166.844,488.708,166.706 M478.293,154.709
	c-0.241,5.522,4.418,10.572,10.4,10.578c5.584,0.007,10.521-4.405,10.525-10.517c0.005-6.105-5.05-10.456-10.461-10.481
	C482.949,144.262,478.085,149.221,478.293,154.709z"/>
<path fill="#231F20" d="M491.245,155.315c0.19,0.083,0.383,0.166,0.573,0.247c1.294,0.541,1.897,1.573,2.022,2.912
	c0.06,0.636,0.039,1.279,0.036,1.92c-0.003,0.597-0.155,0.734-0.77,0.76c-0.092,0.003-0.184,0.003-0.273-0.001
	c-0.575-0.029-0.778-0.19-0.832-0.755c-0.045-0.454-0.028-0.914-0.03-1.371c-0.003-0.561-0.134-1.085-0.383-1.585
	c-0.305-0.611-0.788-1.018-1.449-1.163c-1.228-0.273-2.472-0.324-3.723-0.176c-0.056,0.007-0.107,0.057-0.255,0.14
	c-0.037,0.256-0.115,0.577-0.122,0.898c-0.02,0.914-0.007,1.829-0.01,2.744c-0.001,0.243-0.006,0.489-0.027,0.731
	c-0.03,0.315-0.214,0.511-0.533,0.518c-0.39,0.011-0.781-0.015-1.207-0.026c-0.077-0.249-0.161-0.44-0.191-0.642
	c-0.032-0.209-0.019-0.425-0.019-0.638c0-3.415-0.003-6.83,0.004-10.244c0.001-0.387-0.086-0.797,0.24-1.235
	c0.195-0.023,0.458-0.084,0.72-0.085c1.526-0.009,3.05-0.022,4.574,0.009c0.606,0.013,1.22,0.093,1.813,0.224
	c2.148,0.475,3.296,2.762,2.408,4.778c-0.322,0.732-0.893,1.221-1.639,1.507c-0.307,0.117-0.614,0.233-0.92,0.351
	C491.251,155.194,491.248,155.254,491.245,155.315 M486.188,154.428c0.244,0.051,0.479,0.141,0.71,0.139
	c0.942-0.009,1.888-0.017,2.826-0.084c0.383-0.027,0.772-0.174,1.128-0.332c0.488-0.22,0.848-0.604,1.001-1.126
	c0.185-0.626,0.18-1.262-0.013-1.888c-0.153-0.496-0.473-0.86-0.953-1.042c-0.366-0.137-0.756-0.224-1.141-0.295
	c-0.389-0.07-0.782-0.111-1.176-0.131c-0.781-0.04-1.569-0.132-2.354,0.087c-0.06,0.181-0.146,0.321-0.148,0.461
	c-0.017,1.217-0.021,2.435-0.015,3.651C486.054,154.042,486.134,154.214,486.188,154.428z"/>
</svg>
