<svg width="20" height="20" viewBox="0 0 20 20" fill="none" xmlns="http://www.w3.org/2000/svg">
<rect x="5.5" y="5.5" width="9" height="9" fill="#22222B"/>
<path fill-rule="evenodd" clip-rule="evenodd" d="M7 4C5.34315 4 4 5.34315 4 7V13C4 14.6569 5.34315 16 7 16H13C14.6569 16 16 14.6569 16 13V7C16 5.34315 14.6569 4 13 4H7ZM12.4433 12.3064C12.5284 12.1327 12.5541 11.9447 12.5541 11.7535C12.5547 11.0994 12.5546 10.4447 12.5546 9.79004C12.5545 9.57181 12.5545 9.35358 12.5545 9.13537C12.5549 8.2598 12.5549 7.38423 12.5541 6.50828C12.5541 6.47394 12.5522 6.4396 12.5487 6.40566C12.5342 6.26285 12.4367 6.1735 12.2946 6.18482C12.1945 6.1929 12.094 6.21277 11.9946 6.23242L11.9907 6.2332C11.7523 6.28009 11.5142 6.32838 11.2763 6.37663C11.2073 6.39061 11.1384 6.40459 11.0695 6.41853C10.8802 6.45687 10.6907 6.49508 10.5012 6.53331C10.3435 6.56512 10.1858 6.59694 10.0281 6.62884C9.94395 6.64577 9.85977 6.66269 9.77556 6.67962C9.5239 6.73022 9.27196 6.78087 9.02024 6.83174C8.99094 6.83771 8.96162 6.8435 8.93231 6.84928C8.84295 6.86691 8.75371 6.88452 8.66557 6.90743C8.54071 6.93982 8.44785 7.01434 8.41585 7.14505C8.4022 7.20007 8.39634 7.25821 8.39634 7.31478C8.39556 8.67144 8.39556 10.0285 8.39556 11.3855C8.39556 11.3913 8.39559 11.397 8.39561 11.4028C8.39568 11.4198 8.39576 11.4367 8.39517 11.4542C8.38776 11.6333 8.29607 11.7437 8.12087 11.7816C8.05028 11.7967 7.97946 11.8109 7.9086 11.8252C7.84786 11.8374 7.78709 11.8496 7.7264 11.8623C7.55433 11.8982 7.38265 11.9361 7.21878 12.0048C6.79582 12.1839 6.62531 12.5838 6.69047 12.9564C6.76617 13.3887 7.13098 13.6806 7.57033 13.6642C7.73694 13.6584 7.90198 13.6318 8.06274 13.5854C8.36747 13.4968 8.5926 13.3138 8.72019 13.0196C8.79784 12.8405 8.81891 12.6501 8.81891 12.4578C8.81938 11.7424 8.81942 11.027 8.81947 10.3116C8.8195 9.83441 8.81953 9.35727 8.81969 8.88019C8.81969 8.8751 8.81966 8.87003 8.81964 8.86498C8.81957 8.84991 8.8195 8.83501 8.82008 8.8201C8.82593 8.689 8.87197 8.63086 8.99878 8.59575C9.00062 8.59524 9.00249 8.5947 9.00438 8.59415C9.00969 8.59262 9.01516 8.59105 9.02063 8.5899C9.12564 8.56862 9.23075 8.54744 9.33586 8.52626C9.44087 8.50511 9.54587 8.48395 9.65078 8.4627C9.76925 8.43877 9.88776 8.4148 10.0063 8.39082C10.2434 8.34287 10.4804 8.29492 10.7171 8.24732C10.787 8.23324 10.8568 8.21915 10.9265 8.20506C11.205 8.14886 11.4831 8.0927 11.762 8.03779C11.8338 8.02335 11.9064 8.01165 11.9794 8.00735C12.0504 8.00345 12.1007 8.04559 12.1191 8.11465C12.1257 8.14197 12.1304 8.17084 12.1304 8.19932C12.1312 9.0308 12.1312 9.86228 12.1308 10.6941C12.1308 10.7238 12.1284 10.7538 12.123 10.7827C12.098 10.9138 12.0141 10.9903 11.8885 11.0192C11.7797 11.0443 11.67 11.0668 11.5603 11.0893C11.4964 11.1024 11.4325 11.1156 11.3687 11.1292C11.2092 11.1635 11.0507 11.2045 10.9025 11.2779C10.5306 11.4601 10.3609 11.8503 10.4257 12.2041C10.5037 12.633 10.8806 12.9287 11.3168 12.908C11.4838 12.9006 11.6473 12.8745 11.8069 12.8288C12.0941 12.7473 12.3106 12.5772 12.4433 12.3064Z" fill="white"/>
<path fill-rule="evenodd" clip-rule="evenodd" d="M14.5 4H5.5C4.67157 4 4 4.67157 4 5.5V14.5C4 15.3284 4.67157 16 5.5 16H14.5C15.3284 16 16 15.3284 16 14.5V5.5C16 4.67157 15.3284 4 14.5 4ZM4.49999 5.49999C4.49999 4.94771 4.94771 4.49999 5.49999 4.49999H14.5C15.0523 4.49999 15.5 4.94771 15.5 5.49999V14.5C15.5 15.0523 15.0523 15.5 14.5 15.5H5.49999C4.94771 15.5 4.49999 15.0523 4.49999 14.5V5.49999Z" fill="white"/>
</svg>
