<svg width="20" height="20" viewBox="0 0 20 20" fill="none" xmlns="http://www.w3.org/2000/svg">
<path fill-rule="evenodd" clip-rule="evenodd" d="M12.8287 3H7.1713C4.86971 3 3 4.87005 3 7.17205V12.8305C3 15.1299 4.86971 17 7.1713 17H12.8287C15.1277 17 17 15.1299 17 12.828V7.17205C16.9975 4.87005 15.1277 3 12.8287 3ZM15.5901 12.8304C15.5901 14.3549 14.3529 15.5923 12.8287 15.5923H7.1713C5.64707 15.5923 4.40991 14.3549 4.40991 12.8304V7.17199C4.40991 5.64749 5.64707 4.4101 7.1713 4.4101H12.8287C14.3529 4.4101 15.5901 5.64749 15.5901 7.17199V12.8304ZM9.99877 6.37923C8.00204 6.37923 6.37876 8.00281 6.37876 9.99991C6.37876 11.997 8.00204 13.6206 9.99877 13.6206C11.9955 13.6206 13.6188 11.997 13.6188 9.99991C13.6188 8.00281 11.9955 6.37923 9.99877 6.37923ZM9.99876 12.213C8.77684 12.213 7.78611 11.2221 7.78611 9.99994C7.78611 8.77783 8.77684 7.78687 9.99876 7.78687C11.2207 7.78687 12.2115 8.77783 12.2115 9.99994C12.2115 11.2221 11.2207 12.213 9.99876 12.213ZM14.4927 6.40658C14.4927 6.88501 14.1048 7.27284 13.6264 7.27284C13.148 7.27284 12.7602 6.88501 12.7602 6.40658C12.7602 5.92815 13.148 5.54031 13.6264 5.54031C14.1048 5.54031 14.4927 5.92815 14.4927 6.40658Z" fill="white"/>
</svg>
