<svg width="20" height="20" viewBox="0 0 20 20" fill="none" xmlns="http://www.w3.org/2000/svg">
<path d="M17 10C17 6.13401 13.866 3 10 3C6.13401 3 3 6.13401 3 10C3 13.866 6.13401 17 10 17C13.866 17 17 13.866 17 10Z" fill="#22222B"/>
<path fill-rule="evenodd" clip-rule="evenodd" d="M14.1407 9.20566C11.8843 7.86569 8.16252 7.74242 6.00842 8.39617C5.66253 8.5012 5.29674 8.30589 5.19193 7.95999C5.08711 7.6139 5.28221 7.24832 5.62841 7.14319C8.10099 6.39266 12.2114 6.53757 14.809 8.07955C15.1202 8.26425 15.2223 8.66611 15.0378 8.97665C14.8532 9.28781 14.4512 9.39036 14.1407 9.20566ZM14.0668 11.1904C13.9086 11.4473 13.5727 11.5278 13.3162 11.3701C11.435 10.2138 8.56654 9.87879 6.34092 10.5544C6.05233 10.6416 5.74746 10.4788 5.65985 10.1908C5.57286 9.90219 5.73571 9.59794 6.02378 9.51012C8.56613 8.73867 11.7267 9.11228 13.8873 10.4401C14.1438 10.5981 14.2245 10.9341 14.0668 11.1904ZM13.2103 13.0964C13.0845 13.3027 12.8159 13.3673 12.6104 13.2417C10.9667 12.237 8.8976 12.0101 6.46099 12.5667C6.2262 12.6205 5.99214 12.4733 5.93865 12.2386C5.88484 12.0038 6.03141 11.7698 6.26681 11.7162C8.93326 11.1066 11.2205 11.3689 13.0655 12.4965C13.2712 12.622 13.3361 12.8908 13.2103 13.0964ZM10 3C6.13406 3 3 6.13396 3 9.9999C3 13.8662 6.13406 17 10 17C13.866 17 17 13.8662 17 9.9999C17 6.13396 13.866 3 10 3Z" fill="white"/>
</svg>
