<svg width="20" height="20" viewBox="0 0 20 20" fill="none" xmlns="http://www.w3.org/2000/svg">
<path fill-rule="evenodd" clip-rule="evenodd" d="M17 5.42059C16.4856 5.66154 15.9317 5.82449 15.3508 5.89729C15.9441 5.52286 16.3993 4.92914 16.6138 4.22189C16.0583 4.56858 15.4444 4.8208 14.7887 4.95601C14.2661 4.3675 13.5191 4 12.6924 4C11.1073 4 9.82127 5.35645 9.82127 7.02925C9.82127 7.26674 9.84592 7.49729 9.89523 7.71918C7.50807 7.59263 5.39209 6.38787 3.97458 4.55298C3.72724 5.00195 3.5859 5.52286 3.5859 6.07757C3.5859 7.12806 4.09292 8.05547 4.86371 8.59892C4.39367 8.58418 3.94993 8.44637 3.56207 8.22102V8.25829C3.56207 9.72654 4.55227 10.9512 5.86705 11.2286C5.62628 11.2997 5.37237 11.3352 5.11023 11.3352C4.92534 11.3352 4.74456 11.317 4.56953 11.2815C4.9352 12.4845 5.99525 13.3608 7.25251 13.3842C6.26971 14.1972 5.03052 14.6817 3.68533 14.6817C3.4536 14.6817 3.22434 14.6678 3 14.6401C4.27123 15.4982 5.78159 16 7.40289 16C12.6867 16 15.5751 11.3846 15.5751 7.38115C15.5751 7.2494 15.5726 7.11766 15.5677 6.98852C16.129 6.56121 16.6162 6.02817 17 5.42059Z" fill="white"/>
</svg>
