<svg width="20" height="20" viewBox="0 0 20 20" fill="none" xmlns="http://www.w3.org/2000/svg">
<path fill-rule="evenodd" clip-rule="evenodd" d="M15.403 6.62663C15.7626 6.98903 15.88 7.81197 15.88 7.81197C15.88 7.81197 16 8.7786 16 9.74486V10.651C16 11.6177 15.88 12.5839 15.88 12.5839C15.88 12.5839 15.7626 13.4069 15.403 13.7693C14.9918 14.198 14.5359 14.2423 14.2783 14.2673C14.2499 14.2701 14.224 14.2726 14.2008 14.2753C12.5215 14.3963 10 14.4 10 14.4C10 14.4 6.88 14.3716 5.92 14.2798C5.87452 14.2714 5.81938 14.2648 5.75694 14.2573C5.45285 14.221 4.97557 14.1641 4.59662 13.7693C4.237 13.4069 4.12 12.5839 4.12 12.5839C4.12 12.5839 4 11.6177 4 10.651V9.74486C4 8.7786 4.12 7.81197 4.12 7.81197C4.12 7.81197 4.237 6.98903 4.59662 6.62663C5.0087 6.19733 5.46503 6.15351 5.72274 6.12877C5.75068 6.12608 5.77629 6.12362 5.79925 6.12092C7.4785 6 9.99738 6 9.99738 6H10.0026C10.0026 6 12.5215 6 14.2008 6.12092C14.2237 6.12363 14.2493 6.12609 14.2773 6.12878C14.5348 6.15352 14.9913 6.1974 15.403 6.62663ZM11.75 10.2001L9 8.4707L9.00035 11.9295L11.75 10.2001Z" fill="white"/>
</svg>
